<svg width="1536" height="1024" viewBox="0 0 1536 1024" fill="none" xmlns="http://www.w3.org/2000/svg">
<g clip-path="url(#clip0_102_9)">
<path d="M0 0C506.88 0 1013.76 0 1536 0C1536 337.92 1536 675.84 1536 1024C1029.12 1024 522.24 1024 0 1024C0 686.08 0 348.16 0 0Z" fill="#070708"/>
<path d="M779.016 319.533C786.207 324.851 790.195 335.573 794.375 343.25C795.076 344.531 795.778 345.811 796.48 347.092C797.935 349.745 799.387 352.398 800.839 355.053C803.881 360.613 806.946 366.161 810.011 371.709C811.338 374.112 812.663 376.515 813.989 378.919C816.683 383.803 819.378 388.685 822.077 393.566C823.781 396.648 825.484 399.73 827.187 402.813C827.688 403.719 827.688 403.719 828.199 404.643C832.739 412.864 837.232 421.108 841.687 429.375C846.359 438.041 851.161 446.623 856.033 455.177C860.968 463.872 865.71 472.667 870.42 481.486C870.975 482.524 871.53 483.563 872.101 484.633C872.59 485.55 873.078 486.466 873.58 487.411C874.549 489.178 875.576 490.915 876.65 492.621C878.567 496 878.537 498.173 878 502C874.41 507.098 870.329 510.074 865.062 513.313C863.931 514.026 863.931 514.026 862.776 514.754C861.241 515.723 859.703 516.687 858.163 517.648C855.153 519.529 852.171 521.451 849.187 523.375C848.63 523.733 848.072 524.091 847.497 524.46C842.546 527.639 837.617 530.851 832.687 534.063C825.046 539.039 817.374 543.967 809.687 548.875C801.597 554.041 793.533 559.245 785.5 564.5C776.412 570.446 767.278 576.316 758.125 582.16C751.731 586.245 745.355 590.356 739 594.5C731.525 599.374 724.02 604.196 716.5 609C706.386 615.461 696.311 621.979 686.255 628.531C674.62 636.108 662.935 643.606 651.237 651.086C643.144 656.263 635.069 661.468 627.009 666.697C622.044 669.917 617.076 673.132 612.105 676.344C609.375 678.108 606.649 679.88 603.926 681.656C602.659 682.479 601.392 683.302 600.125 684.125C599.548 684.504 598.971 684.882 598.376 685.272C593.261 688.585 589.076 689.615 583 689C577.23 687.142 573.065 684.446 569.902 679.168C567.493 673.379 568.118 667.333 570.297 661.57C571.924 658.141 573.753 654.824 575.604 651.512C577.177 648.681 578.704 645.827 580.226 642.969C587.244 629.816 594.398 616.735 601.55 603.655C602.986 601.025 604.419 598.394 605.851 595.762C611.475 585.429 617.13 575.113 622.812 564.813C623.15 564.2 623.488 563.588 623.836 562.958C627.499 556.319 631.172 549.686 634.863 543.063C641.631 530.92 648.313 518.739 654.874 506.483C658.636 499.476 662.497 492.533 666.437 485.625C671.327 477.052 676.046 468.396 680.687 459.688C685.888 449.93 691.167 440.225 696.564 430.575C699.641 425.058 702.696 419.529 705.75 414C706.093 413.38 706.435 412.759 706.789 412.12C712.239 402.251 717.595 392.335 722.916 382.395C727.232 374.359 731.7 366.419 736.234 358.504C739.007 353.631 741.683 348.728 744.234 343.734C745.026 342.185 745.026 342.185 745.833 340.604C746.826 338.645 747.809 336.681 748.78 334.71C752.122 328.1 755.983 321.472 762.437 317.5C768.578 316.302 773.551 316.368 779.016 319.533Z" fill="#6A5CE3"/>
<path d="M769 375C771.595 378.242 773.507 381.65 775.441 385.32C775.765 385.931 776.089 386.542 776.422 387.172C777.113 388.478 777.803 389.784 778.491 391.091C780.3 394.525 782.121 397.952 783.941 401.379C784.477 402.389 784.477 402.389 785.024 403.419C787.634 408.328 790.285 413.211 793 418.062C793.375 418.733 793.751 419.404 794.138 420.096C794.95 421.547 795.763 422.998 796.576 424.449C799.673 429.997 802.742 435.562 805.812 441.125C806.154 441.743 806.495 442.362 806.847 442.999C812.228 452.747 817.558 462.522 822.839 472.325C823.33 473.236 823.822 474.147 824.328 475.086C824.781 475.934 825.234 476.782 825.701 477.655C826.889 479.799 828.171 481.846 829.484 483.914C831 487 831 487 830.691 489.152C828.165 491.912 825.13 493.682 821.938 495.562C820.472 496.452 819.007 497.342 817.543 498.234C816.788 498.691 816.033 499.148 815.255 499.619C811.713 501.788 808.231 504.047 804.75 506.312C803.706 506.99 803.706 506.99 802.64 507.682C800.426 509.12 798.213 510.56 796 512C794.359 513.066 792.719 514.133 791.078 515.199C788.533 516.854 785.987 518.508 783.442 520.163C777.445 524.063 771.441 527.952 765.434 531.836C759.092 535.938 752.759 540.055 746.428 544.173C741.249 547.541 736.064 550.899 730.875 554.25C722.992 559.343 715.14 564.482 707.287 569.621C700.639 573.972 693.987 578.315 687.312 582.625C671.804 592.642 656.328 602.709 641 613C640.34 612.67 639.68 612.34 639 612C646.009 598.797 653.017 585.603 660.438 572.625C665.46 563.836 670.263 554.945 675 546C679.737 537.055 684.54 528.165 689.562 519.375C694.366 510.967 699.006 502.481 703.562 493.938C703.881 493.341 704.199 492.744 704.527 492.13C705.479 490.344 706.431 488.559 707.383 486.773C715.428 471.686 723.698 456.721 731.97 441.757C736.588 433.403 741.16 425.028 745.688 416.625C753.237 402.625 761.103 388.806 769 375Z" fill="#070708"/>
<path d="M903 546C905.562 547.875 905.562 547.875 908 551C908.544 551.682 909.088 552.364 909.648 553.066C922.417 569.989 927.142 591.902 924.24 612.733C920.324 637.734 908.171 660.211 888 676C867.658 690.428 843.842 695.459 819.188 695.125C814.836 695.084 810.484 695.043 806 695C806 684.44 806 673.88 806 663C809.362 662.876 812.724 662.753 816.188 662.625C837.203 661.712 858.963 658.362 874 642C885.311 627.723 890.449 612.175 889 594C887.786 583.926 883.677 575.604 878.949 566.786C877.583 564.215 876.29 561.609 875 559C877.395 557.394 879.791 555.79 882.188 554.188C882.861 553.736 883.535 553.284 884.229 552.818C896.469 544.638 896.469 544.638 903 546Z" fill="#695BE3"/>
</g>
<defs>
<clipPath id="clip0_102_9">
<rect width="1536" height="1024" fill="white"/>
</clipPath>
</defs>
</svg>
