<svg width="1536" height="1024" viewBox="0 0 1536 1024" fill="none" xmlns="http://www.w3.org/2000/svg">
<g clip-path="url(#clip0_102_16)">
<path d="M0 0C506.88 0 1013.76 0 1536 0C1536 337.92 1536 675.84 1536 1024C1029.12 1024 522.24 1024 0 1024C0 686.08 0 348.16 0 0Z" fill="#070708"/>
<path d="M337 393C343.716 396.193 346.174 401.881 349.562 408.25C350.166 409.356 350.77 410.462 351.391 411.601C353.275 415.06 355.138 418.529 357 422C358.16 424.143 359.322 426.285 360.484 428.426C362.141 431.477 363.795 434.53 365.442 437.586C368.524 443.303 371.661 448.982 374.875 454.625C378.119 460.33 381.088 466.13 383.98 472.023C387.025 478.112 390.359 484.052 393.65 490.01C396.914 495.938 400.021 501.924 403 508C389.017 519.211 373.962 528.468 358.649 537.74C351.015 542.365 343.458 547.1 335.922 551.883C330.402 555.385 324.858 558.85 319.312 562.312C318.307 562.941 317.301 563.569 316.265 564.216C312.143 566.79 308.02 569.363 303.897 571.937C293.649 578.334 283.401 584.734 273.187 591.188C272.427 591.668 271.667 592.148 270.883 592.642C266.934 595.137 262.992 597.644 259.059 600.164C254.395 603.147 249.712 606.095 245 609C244.357 609.397 243.715 609.794 243.053 610.203C231.558 617.194 231.558 617.194 224.875 616.543C221.347 615.521 219.985 614.039 218 611C216.255 604.484 217.211 600.01 220.418 594.238C220.786 593.534 221.155 592.83 221.534 592.104C222.731 589.828 223.958 587.571 225.187 585.312C226.027 583.731 226.864 582.149 227.7 580.566C230.104 576.028 232.547 571.512 235 567C235.597 565.897 236.194 564.794 236.809 563.658C238.748 560.08 240.694 556.507 242.661 552.945C246.568 545.861 250.296 538.691 254 531.5C258.723 522.332 263.558 513.241 268.531 504.207C272.29 497.357 275.914 490.442 279.5 483.5C283.959 474.872 288.518 466.312 293.199 457.803C296.963 450.944 300.636 444.04 304.289 437.122C310.028 426.254 315.781 415.396 321.812 404.687C322.522 403.408 322.522 403.408 323.246 402.103C323.907 400.944 323.907 400.944 324.582 399.762C324.956 399.101 325.329 398.441 325.714 397.76C328.834 393.489 331.778 392.269 337 393Z" fill="#6A5DE1"/>
<path d="M774.039 468.879C775.01 469.434 775.01 469.434 776 470C777.547 470.835 777.547 470.835 779.125 471.687C788.415 479.16 793.949 488.188 796 500C797.311 517.216 796.784 534.266 785 548C778.346 555.2 769.752 559.475 759.934 560.238C749.057 560.469 740.402 558.903 732.242 551.367C731 550 731 550 730 548C729.67 562.19 729.34 576.38 729 591C722.73 591 716.46 591 710 591C710 550.08 710 509.16 710 467C715.94 467 721.88 467 728 467C728.66 470.63 729.32 474.26 730 478C730.99 476.927 731.98 475.855 733 474.75C743.28 464.428 761.061 462.479 774.039 468.879Z" fill="#596272"/>
<path d="M677 470C687.331 476.192 692.198 485.606 695.559 496.875C698.663 511.839 697.271 529.808 689.188 542.875C688.157 544.274 687.095 545.651 686 547C685.487 547.637 684.974 548.274 684.445 548.93C678.49 555.569 669.802 559.549 660.934 560.238C650.057 560.469 641.402 558.903 633.242 551.367C632 550 632 550 631 548C630.67 562.19 630.34 576.38 630 591C623.73 591 617.46 591 611 591C611 550.08 611 509.16 611 467C616.94 467 622.88 467 629 467C629.33 471.29 629.66 475.58 630 480C631.031 478.763 632.062 477.525 633.125 476.25C644.017 463.846 662.683 462.231 677 470Z" fill="#596272"/>
<path d="M978.887 472.469C981.603 474.437 983.814 476.45 986 479C986.737 479.843 986.737 479.843 987.488 480.703C997.421 492.829 998.095 508.001 997 523C995.028 534.109 990.052 544.298 981.207 551.469C970.066 559.199 958.3 561.246 945 560C933.404 557.694 923.857 551.626 917 542C911.406 532.814 909.616 523.844 909.688 513.187C909.692 512.313 909.697 511.439 909.702 510.538C909.948 496.903 913.834 485.874 923.121 475.785C938.015 461.634 962.254 461.645 978.887 472.469Z" fill="#586171"/>
<path d="M530 434C538.25 434 546.5 434 555 434C556.03 436.98 557.06 439.961 558.121 443.031C565.678 464.879 573.277 486.71 581 508.5C581.534 510.008 581.534 510.008 582.08 511.547C585.385 520.871 588.697 530.192 592.066 539.492C592.499 540.687 592.931 541.881 593.377 543.111C594.137 545.202 594.899 547.292 595.666 549.381C595.984 550.253 596.302 551.125 596.629 552.023C596.898 552.755 597.167 553.486 597.444 554.24C598 556 598 556 598 558C591.07 558 584.14 558 577 558C574.418 551.744 572.029 545.434 569.75 539.062C569.345 537.944 569.345 537.944 568.931 536.803C567.849 533.748 567 531.266 567 528C550.83 528 534.66 528 518 528C517.01 531.3 516.02 534.6 515 538C514.408 539.789 513.804 541.575 513.176 543.352C512.899 544.139 512.622 544.926 512.337 545.737C511.999 546.69 511.661 547.643 511.312 548.625C510.219 551.719 509.126 554.812 508 558C501.07 558 494.14 558 487 558C489.25 547.876 489.25 547.876 490.578 544.245C490.877 543.417 491.177 542.589 491.486 541.736C491.809 540.86 492.132 539.984 492.465 539.082C492.983 537.655 492.983 537.655 493.511 536.2C494.259 534.143 495.008 532.088 495.76 530.033C497.791 524.48 499.803 518.919 501.816 513.359C502.448 511.618 502.448 511.618 503.092 509.841C508.772 494.144 514.281 478.387 519.804 462.634C520.19 461.536 520.575 460.437 520.972 459.306C521.685 457.272 522.398 455.237 523.11 453.202C525.359 446.783 527.675 440.394 530 434Z" fill="#586172"/>
<path d="M882.715 441.25C890.253 447.022 894.858 453.701 897 463C897 464.65 897 466.3 897 468C890.4 468 883.8 468 877 468C875.948 465.649 875.948 465.649 874.875 463.25C871.814 457.179 868.764 454.937 862.312 452.75C853.932 450.978 844.767 451.103 837 455C833.604 457.919 831.417 460.749 830 465C829.628 470.02 829.863 472.997 833 477C836.779 480.466 840.168 481.975 845.062 483.437C845.749 483.646 846.435 483.854 847.142 484.069C851.944 485.494 856.786 486.681 861.661 487.826C873.797 490.692 887.172 494.28 894.496 505.238C899.863 514.527 900.697 525.023 898.164 535.438C894.813 544.255 889.573 550.28 881.312 554.812C864.654 562.284 845.038 562.265 828 556C817.521 550.989 812.045 544.23 807.664 533.688C807 531 807 531 807 523C813.27 523 819.54 523 826 523C826.722 524.567 827.444 526.135 828.188 527.75C831.525 534.359 835.192 536.961 842.035 539.387C850.647 542.075 859.336 541.391 868 539C871.848 536.939 874.985 534.925 877 531C878.103 526.529 878.367 523.082 876.875 518.688C873.166 513.372 868.996 511.379 862.875 509.562C862.188 509.356 861.502 509.149 860.795 508.936C855.254 507.293 849.661 505.868 844.062 504.438C831.224 501.143 821.261 496.813 813 486C808.11 477.687 807.579 467.533 809.613 458.18C812.936 448.84 819.711 441.914 828.332 437.219C845.471 429.389 866.973 431.011 882.715 441.25Z" fill="#596171"/>
<path d="M334 430C337.176 431.588 338.028 434.846 339.5 437.938C342.404 443.888 345.443 449.728 348.688 455.5C354.388 465.652 359.938 475.885 365.443 486.144C366.526 488.13 367.633 490.102 368.76 492.063C369.598 493.534 369.598 493.534 370.453 495.035C370.965 495.917 371.477 496.799 372.005 497.707C373 500 373 500 372 503C370.168 504.344 370.168 504.344 367.758 505.715C366.867 506.23 365.976 506.744 365.058 507.275C364.09 507.823 363.122 508.372 362.125 508.938C360.09 510.115 358.056 511.295 356.023 512.477C355.002 513.07 353.981 513.663 352.929 514.274C348.812 516.7 344.775 519.239 340.75 521.812C333.175 526.646 325.538 531.369 317.875 536.062C309.206 541.379 300.609 546.782 292.094 552.34C281.204 559.44 270.217 566.426 259 573C260.631 567.153 263.505 562.144 266.438 556.875C266.97 555.909 267.502 554.942 268.05 553.947C270.195 550.053 272.353 546.166 274.51 542.279C279.4 533.467 284.237 524.664 288.674 515.615C292 508.889 295.566 502.293 299.125 495.688C304.232 486.209 309.257 476.696 314.188 467.125C319.958 455.928 325.917 444.844 332.007 433.818C332.695 432.558 333.358 431.284 334 430Z" fill="#07070A"/>
<path d="M1199 473C1209.25 481.112 1212.79 491.439 1215 504C1215 508.62 1215 513.24 1215 518C1193.55 518 1172.1 518 1150 518C1151.85 529.717 1151.85 529.717 1158.67 538.203C1166.39 542.887 1174.94 543.031 1183.71 541.539C1187.99 540.331 1189.58 539.656 1192.06 535.812C1192.7 534.884 1193.34 533.956 1194 533C1200.16 532.151 1205.99 533.62 1212 535C1210.91 542.311 1205.85 548.117 1200.12 552.613C1191.46 558.278 1183.47 559.467 1173.31 559.562C1172.35 559.577 1171.39 559.592 1170.4 559.607C1159.26 559.448 1149.45 554.963 1141.28 547.41C1132.36 537.742 1129.6 525.995 1129.69 513.188C1129.69 512.313 1129.7 511.439 1129.7 510.538C1129.95 497.039 1133.76 485.846 1143 475.852C1158.63 461.381 1181.89 461.63 1199 473Z" fill="#586070"/>
<path d="M1285.96 472.262C1290.93 476.497 1294.57 481.561 1296 488C1296.02 489.666 1296.03 491.334 1296 493C1279.54 494.231 1279.54 494.231 1275.9 491.324C1274.75 489.187 1274.75 489.187 1273.83 486.98C1273.07 484.731 1273.07 484.731 1270.5 483C1263.87 481.106 1256.91 480.997 1250.37 483.25C1247.91 485.063 1246.4 486.279 1245 489C1244.71 492.493 1244.76 495.705 1246 499C1247.65 500.044 1247.65 500.044 1249.78 500.566C1250.59 500.805 1251.41 501.044 1252.25 501.29C1258.42 502.881 1264.63 504.29 1270.85 505.662C1280.57 507.898 1288.72 510.915 1295.31 518.75C1298.71 525.135 1298.01 534.674 1296.41 541.535C1293.2 548.983 1286.07 554.413 1278.75 557.437C1266.13 562.035 1251.22 561.481 1239 556C1232.05 552.125 1227.22 546.347 1223.62 539.312C1222.94 536.782 1222.96 534.609 1223 532C1226.08 531.825 1229.16 531.719 1232.25 531.625C1233.12 531.575 1234 531.524 1234.89 531.473C1237.39 531.415 1239.56 531.436 1242 532C1244.43 534.879 1244.43 534.879 1246 538C1252.03 542.85 1258.38 543.812 1266 543C1270.32 541.879 1274.2 540.633 1277 537C1277.47 534.825 1277.47 534.825 1277.37 532.5C1277.38 531.727 1277.39 530.953 1277.4 530.156C1276.88 527.358 1276.34 526.627 1274 525C1271.56 524.234 1269.23 523.611 1266.75 523.062C1265.31 522.721 1263.86 522.378 1262.42 522.035C1261.69 521.864 1260.95 521.693 1260.2 521.516C1235.1 515.622 1235.1 515.622 1226.82 503.242C1225.6 499.911 1225.67 496.627 1225.69 493.125C1225.67 492.43 1225.66 491.735 1225.64 491.02C1225.63 484.231 1228.05 479.488 1232.5 474.445C1246.34 461.078 1270.88 461.508 1285.96 472.262Z" fill="#586171"/>
<path d="M1042 467C1048.6 467 1055.2 467 1062 467C1064.75 473.735 1067.25 480.489 1069.53 487.398C1069.85 488.355 1070.17 489.311 1070.49 490.296C1071.5 493.321 1072.5 496.348 1073.5 499.375C1074.17 501.396 1074.84 503.417 1075.51 505.437C1076.79 509.275 1078.06 513.113 1079.33 516.952C1081.21 522.638 1083.1 528.32 1085 534C1086.82 528.795 1088.65 523.59 1090.47 518.385C1091.11 516.55 1091.76 514.716 1092.4 512.881C1095.58 503.79 1098.77 494.7 1101.9 485.59C1102.31 484.384 1102.73 483.179 1103.15 481.937C1103.91 479.727 1104.67 477.517 1105.42 475.305C1105.92 473.857 1105.92 473.857 1106.43 472.379C1106.71 471.549 1106.99 470.72 1107.28 469.865C1108 468 1108 468 1109 467C1110.49 466.913 1111.98 466.893 1113.47 466.902C1114.37 466.906 1115.27 466.909 1116.2 466.912C1117.62 466.925 1117.62 466.925 1119.06 466.937C1120.49 466.944 1120.49 466.944 1121.94 466.951C1124.29 466.963 1126.65 466.98 1129 467C1126.63 475.328 1123.78 483.477 1120.89 491.633C1120.39 493.037 1119.89 494.442 1119.4 495.847C1118.36 498.781 1117.32 501.714 1116.28 504.646C1114.96 508.356 1113.65 512.068 1112.33 515.779C1111.31 518.68 1110.28 521.58 1109.25 524.48C1108.77 525.845 1108.29 527.211 1107.8 528.576C1104.32 538.429 1100.69 548.222 1097 558C1089.41 558 1081.82 558 1074 558C1069.26 547.076 1065.33 535.912 1061.38 524.687C1060.67 522.686 1059.96 520.684 1059.25 518.682C1058.19 515.668 1057.12 512.654 1056.06 509.639C1053.89 503.507 1051.71 497.381 1049.51 491.262C1048.74 489.131 1047.98 487 1047.22 484.869C1046.74 483.547 1046.27 482.226 1045.79 480.905C1045.14 479.102 1044.49 477.297 1043.84 475.492C1043.48 474.496 1043.13 473.499 1042.76 472.472C1042 470 1042 470 1042 467Z" fill="#586171"/>
<path d="M415.492 537.562C418 538 418 538 420.133 540.562C421.119 542.264 421.119 542.264 422.125 544C422.788 545.114 423.45 546.227 424.133 547.375C428.346 555.307 429.5 561.795 429.438 570.812C429.457 571.829 429.477 572.845 429.498 573.893C429.489 587.928 423.407 599.634 413.875 609.688C402.835 620.279 388.62 627.181 373.164 627.098C372.101 627.094 371.037 627.091 369.941 627.088C368.847 627.08 367.753 627.071 366.625 627.062C365.507 627.058 364.39 627.053 363.238 627.049C360.492 627.037 357.746 627.019 355 627C355 619.74 355 612.48 355 605C356.665 604.986 358.331 604.972 360.047 604.957C380.916 604.68 380.916 604.68 398.316 594.023C406.069 584.706 407.845 573.753 407 562C405.795 555.578 402.888 551.149 399 546C399 545.34 399 544.68 399 544C400.581 543.182 402.165 542.371 403.75 541.562C404.632 541.11 405.513 540.658 406.422 540.191C409.499 538.77 412.175 538.145 415.492 537.562Z" fill="#6A5DE1"/>
<path d="M1010 435C1016.6 435 1023.2 435 1030 435C1030 475.59 1030 516.18 1030 558C1023.4 558 1016.8 558 1010 558C1010 517.41 1010 476.82 1010 435Z" fill="#586171"/>
<path d="M962.937 483.25C970.307 487.461 974.164 492.667 976.548 500.892C979.095 512.782 977.548 525.629 971.187 535.937C965.17 541.611 958.763 543.401 950.66 543.27C945.364 542.733 941.059 540.992 937.211 537.27C931.306 529.983 929.444 521.856 929.562 512.625C929.569 511.797 929.576 510.969 929.583 510.116C929.793 502.084 931.466 495.147 936.25 488.562C943.649 481.668 953.234 479.415 962.937 483.25Z" fill="#070708"/>
<path d="M765.992 485.598C771.791 489.648 774.984 495.836 776.625 502.562C777.799 513.328 777.328 523.787 772.125 533.5C767.688 538.719 763.397 541.6 756.547 542.406C749.388 542.583 743.627 542.58 737.801 537.895C730.908 530.643 729.007 521.685 728.75 511.937C728.993 502.816 731.075 495.23 737.449 488.461C745.34 481.378 756.709 480.923 765.992 485.598Z" fill="#070708"/>
<path d="M666 486C673.057 491.169 675.583 497.612 677 506C677.718 516.288 677.512 527.235 670.75 535.562C665.201 541.088 660.737 542.173 653.062 542.5C644.8 542.307 640.987 539.854 635.187 534.312C628.729 524.533 628.41 511.979 630.656 500.707C633.147 492.923 637.34 488.101 644.375 484.062C651.829 481.878 659.04 482.419 666 486Z" fill="#070708"/>
<path d="M542 458C543.749 460.623 544.665 462.571 545.68 465.5C545.997 466.408 546.314 467.315 546.64 468.251C547.145 469.718 547.145 469.718 547.66 471.215C548.01 472.222 548.36 473.229 548.721 474.267C549.46 476.397 550.197 478.528 550.932 480.66C552.057 483.923 553.189 487.183 554.322 490.443C555.039 492.513 555.756 494.583 556.473 496.652C556.811 497.628 557.15 498.605 557.499 499.61C557.812 500.521 558.126 501.432 558.449 502.371C558.725 503.17 559.001 503.969 559.286 504.793C559.947 506.835 560.479 508.918 561 511C548.79 511 536.58 511 524 511C525.358 504.889 526.788 499.333 528.934 493.527C529.212 492.76 529.491 491.993 529.778 491.202C530.659 488.779 531.548 486.358 532.438 483.938C533.03 482.312 533.622 480.686 534.213 479.061C536.775 472.027 539.365 465.006 542 458Z" fill="#08090B"/>
<path d="M1187.79 485.406C1192.23 490.054 1195 496.511 1195 503C1180.15 503 1165.3 503 1150 503C1151.91 493.471 1153.05 488.742 1160.56 483.063C1168.97 479.397 1180.37 479.585 1187.79 485.406Z" fill="#060708"/>
<path d="M354 606C354.33 606 354.66 606 355 606C355 612.6 355 619.2 355 626C354.01 625.67 353.02 625.34 352 625C352.14 622.208 352.287 619.417 352.438 616.625C352.477 615.831 352.516 615.037 352.557 614.219C352.887 608.227 352.887 608.227 354 606Z" fill="#0A0F16"/>
<path d="M401 591C401 594.64 400.353 595.104 397.875 597.625C394.73 600.667 392.496 601.89 388 602C388.66 601.484 389.32 600.969 390 600.438C393.753 597.388 397.376 594.201 401 591Z" fill="#7366E0"/>
<path d="M331 393C334 392.688 334 392.688 337 393C337.66 393.66 338.32 394.32 339 395C335.7 395.33 332.4 395.66 329 396C329.66 395.01 330.32 394.02 331 393Z" fill="#6C63D3"/>
<path d="M274 495C275 497 275 497 274.125 500C273 503 273 503 272 505C271.34 505 270.68 505 270 505C270.565 501.042 271.809 498.334 274 495Z" fill="#7367E0"/>
</g>
<defs>
<clipPath id="clip0_102_16">
<rect width="1536" height="1024" fill="white"/>
</clipPath>
</defs>
</svg>
